<svg width="22" height="22" viewBox="0 0 22 22" fill="none" xmlns="http://www.w3.org/2000/svg">
<g id="Iconly/Light-Outline/Search">
<g id="Search">
<path id="Combined-Shape" fill-rule="evenodd" clip-rule="evenodd" d="M10.586 0.333313C16.2392 0.333313 20.8375 4.83024 20.8375 10.3587C20.8375 12.9671 19.814 15.346 18.139 17.1314L21.4348 20.3478C21.7433 20.6495 21.7443 21.1375 21.4359 21.4391C21.2822 21.5915 21.079 21.6666 20.8769 21.6666C20.6758 21.6666 20.4737 21.5915 20.3189 21.4412L16.9833 18.1882C15.2286 19.5625 13.0038 20.3852 10.586 20.3852C4.93278 20.3852 0.333374 15.8872 0.333374 10.3587C0.333374 4.83024 4.93278 0.333313 10.586 0.333313ZM10.586 1.87759C5.80339 1.87759 1.91248 5.68165 1.91248 10.3587C1.91248 15.0358 5.80339 18.8409 10.586 18.8409C15.3675 18.8409 19.2584 15.0358 19.2584 10.3587C19.2584 5.68165 15.3675 1.87759 10.586 1.87759Z" fill="#D6B87C"/>
</g>
</g>
</svg>
